<?xml version="1.0" standalone="no"?>
<!DOCTYPE svg PUBLIC "-//W3C//DTD SVG 20010904//EN"
 "http://www.w3.org/TR/2001/REC-SVG-20010904/DTD/svg10.dtd">
<svg version="1.0" xmlns="http://www.w3.org/2000/svg"
 width="212.000000pt" height="212.000000pt" viewBox="0 0 212.000000 212.000000"
 preserveAspectRatio="xMidYMid meet">
<metadata>
Created by potrace 1.11, written by Peter Selinger 2001-2013
</metadata>
<g transform="translate(0.000000,212.000000) scale(0.100000,-0.100000)"
fill="#000000" stroke="none">
<path d="M942 2011 c-15 -7 -34 -21 -42 -30 -14 -14 -41 -70 -47 -96 -7 -34
-14 -58 -37 -130 -46 -144 -106 -407 -121 -525 -3 -25 -8 -63 -12 -85 -3 -22
-8 -76 -9 -120 -2 -44 -5 -102 -8 -130 -2 -27 -7 -219 -11 -426 l-7 -376 32
-7 c18 -3 65 -6 105 -6 103 0 110 12 83 160 -9 48 -13 132 -12 230 3 146 5
186 18 320 3 30 8 96 11 145 3 50 8 126 11 170 2 44 6 117 9 163 4 102 12 138
37 179 29 49 82 59 122 25 15 -14 84 -141 85 -157 0 -3 9 -35 21 -71 11 -36
22 -76 24 -88 4 -19 70 -303 102 -441 8 -33 17 -73 20 -90 3 -16 10 -38 16
-48 5 -10 7 -21 5 -24 -3 -2 0 -19 7 -36 7 -18 12 -46 12 -64 -1 -17 1 -30 5
-27 4 2 7 -6 6 -19 -1 -24 3 -47 28 -202 10 -55 20 -103 24 -106 3 -4 48 -9
99 -13 83 -5 92 -4 92 12 0 20 -39 169 -68 260 -11 34 -18 62 -15 62 3 0 1 6
-4 13 -12 15 -25 64 -54 192 -21 94 -93 363 -106 395 -9 21 -13 42 -16 67 -1
13 -6 23 -10 23 -5 0 -7 6 -4 13 2 6 -2 27 -9 45 -7 17 -11 32 -9 32 2 0 -2
18 -10 39 -7 22 -11 42 -8 45 4 3 2 6 -3 6 -5 0 -10 8 -11 18 -2 32 -16 95
-43 187 -16 55 -77 309 -85 350 -4 22 -10 44 -13 50 -7 10 -10 25 -16 60 -6
40 -26 64 -59 69 -47 8 -94 3 -125 -13z"/>
</g>
</svg>
